<svg width="16" height="9" viewBox="0 0 16 9" fill="none" xmlns="http://www.w3.org/2000/svg">
<path d="M1.09401 5.03901L4.76201 6.31001L2.94201 7.33501C2.85101 7.38601 2.81101 7.49601 2.84701 7.59501C2.87401 7.66601 2.93701 7.71601 3.00701 7.72901C3.03401 7.73301 3.06201 7.73301 3.09001 7.72801L6.41901 7.04101C6.39801 7.25901 6.54401 7.46101 6.76301 7.50201C6.84001 7.51701 6.91501 7.50801 6.98401 7.48301C7.04001 7.53101 7.10601 7.56601 7.18201 7.58101C7.41301 7.62501 7.63701 7.47301 7.68001 7.24101C7.68301 7.22601 7.68301 7.21201 7.68401 7.19701C7.82201 7.16001 7.93301 7.05501 7.97801 6.91501L12.677 7.80201C12.531 7.84801 12.415 7.96801 12.385 8.12801C12.341 8.35901 12.493 8.58301 12.725 8.62601C12.956 8.67001 13.179 8.51801 13.223 8.28601C13.253 8.12601 13.188 7.97101 13.069 7.87601L13.882 8.02901C14.508 8.14701 14.992 8.36401 15.111 7.73801C14.936 6.74901 13.486 5.89601 12.86 5.77801L9.38201 5.12301L4.51701 1.96201C4.49301 1.94701 4.46801 1.93701 4.44101 1.93101C4.37001 1.91801 4.29401 1.94101 4.24301 1.99801C4.17301 2.07601 4.17001 2.19301 4.23701 2.27401L6.05201 4.49301L2.72901 3.86601C2.49901 3.24601 2.23301 2.51901 1.96001 1.74401C1.17801 -0.474989 0.534014 0.636011 0.479014 0.928011L0.00801377 4.57601C-0.0469862 4.86801 0.198014 4.87001 0.490014 4.92601L1.09401 5.03901Z" fill="#030104"/>
</svg>
