<!DOCTYPE svg PUBLIC "-//W3C//DTD SVG 1.1//EN" "http://www.w3.org/Graphics/SVG/1.1/DTD/svg11.dtd">
<!-- Uploaded to: SVG Repo, www.svgrepo.com, Transformed by: SVG Repo Mixer Tools -->
<svg fill="#F5F5F5" height="800px" width="800px" version="1.1" id="Layer_1" xmlns="http://www.w3.org/2000/svg" xmlns:xlink="http://www.w3.org/1999/xlink" viewBox="0 0 512 512" xml:space="preserve">
<g id="SVGRepo_bgCarrier" stroke-width="0"/>
<g id="SVGRepo_tracerCarrier" stroke-linecap="round" stroke-linejoin="round"/>
<g id="SVGRepo_iconCarrier"> <g> <g> <g> <path d="M262.248,345.749c8.331,8.331,21.839,8.331,30.17,0l70.248-70.248v33.83c0,11.782,9.551,21.333,21.333,21.333 c11.782,0,21.333-9.551,21.333-21.333v-76.497l36.418-36.418c8.331-8.331,8.331-21.839,0-30.17 c-8.331-8.331-21.839-8.331-30.17,0l-36.418,36.418h-76.497c-11.782,0-21.333,9.551-21.333,21.333 c0,11.782,9.551,21.333,21.333,21.333h33.83l-55.163,55.163l-27.582-27.582c-8.331-8.331-21.839-8.331-30.17,0 s-8.331,21.839,0,30.17L262.248,345.749z"/> <path d="M490.667,96H21.333C9.551,96,0,105.551,0,117.333v277.333C0,406.449,9.551,416,21.333,416h469.333 c11.782,0,21.333-9.551,21.333-21.333V117.333C512,105.551,502.449,96,490.667,96z M469.333,373.333H42.667V138.667h426.667 V373.333z"/> <path d="M106.667,202.665H192c11.782,0,21.333-9.551,21.333-21.333c0-11.782-9.551-21.333-21.333-21.333h-85.333 c-11.782,0-21.333,9.551-21.333,21.333C85.333,193.113,94.885,202.665,106.667,202.665z"/> <path d="M106.667,266.665h64c11.782,0,21.333-9.551,21.333-21.333c0-11.782-9.551-21.333-21.333-21.333h-64 c-11.782,0-21.333,9.551-21.333,21.333C85.333,257.113,94.885,266.665,106.667,266.665z"/> </g> </g> </g> </g>
</svg>