<!DOCTYPE svg PUBLIC "-//W3C//DTD SVG 1.1//EN" "http://www.w3.org/Graphics/SVG/1.1/DTD/svg11.dtd">
<!-- Uploaded to: SVG Repo, www.svgrepo.com, Transformed by: SVG Repo Mixer Tools -->
<svg fill="#F5F5F5" height="800px" width="800px" version="1.1" id="Layer_1" xmlns="http://www.w3.org/2000/svg" xmlns:xlink="http://www.w3.org/1999/xlink" viewBox="0 0 456.213 456.213" xml:space="preserve">
<g id="SVGRepo_bgCarrier" stroke-width="0"/>
<g id="SVGRepo_tracerCarrier" stroke-linecap="round" stroke-linejoin="round"/>
<g id="SVGRepo_iconCarrier"> <g id="XMLID_243_"> <g> <path d="M422.432,206.213l29.436-29.437L275.093,0l-91.924,91.924l10.606,10.606c5.849,5.849,5.849,15.364-0.001,21.213 c-2.833,2.833-6.6,4.394-10.605,4.394c-4.007,0-7.773-1.561-10.607-4.394l-10.606-10.606L68.88,206.213H3.107v250h290v-15 c0-8.271,6.729-15,15-15c8.272,0,15,6.729,15,15v15h130v-250H422.432z M158.107,356.213h-80v-30h80V356.213z M178.107,296.213 h-100v-30h100V296.213z M378.107,346.213H344.32l-35.606,35.606l-21.213-21.212l14.393-14.394h-58.787v-55h30v25h28.787 l-14.393-14.394l21.213-21.213l35.606,35.606h33.787V346.213z M380.006,206.214h-56.898v15c0,8.271-6.728,15-15,15 c-8.271,0-15-6.729-15-15v-15H111.305l52.452-52.453c5.984,2.864,12.581,4.376,19.411,4.376h0.001 c12.02,0,23.321-4.682,31.819-13.181c8.499-8.499,13.18-19.799,13.18-31.819c0-6.829-1.512-13.428-4.375-19.41l51.3-51.301 l134.35,134.351L380.006,206.214z"/> </g> </g> </g>
</svg>